<svg xmlns="http://www.w3.org/2000/svg" version="1.1" xmlns:xlink="http://www.w3.org/1999/xlink" width="32" height="32"><svg xmlns="http://www.w3.org/2000/svg" width="32" height="32" fill="none" viewBox="0 0 32 32">
  <circle cx="16" cy="16" r="18" fill="#fafafa"></circle>
  <path fill="#111111" d="M23.715 24.354q-1.258 0-1.972-.714-.68-.714-.68-1.87t.68-1.836q.714-.714 2.006-.714t1.938.714q.68.68.68 1.836t-.68 1.87-1.972.714M13.5 24.32q-1.53 0-2.414-.952-.85-.985-.85-2.958 0-2.21.51-4.284T11.8 11.57l1.734.238q-.135.884-.374 2.584a30 30 0 0 0-.204 3.672q0 1.19.306 1.972t1.462.782q1.122 0 1.564-.408.476-.408.918-.884l.816.544a8.6 8.6 0 0 1-.918 1.972 5.8 5.8 0 0 1-1.496 1.632q-.884.646-2.108.646M5.884 13.95 5 13.44a9.6 9.6 0 0 1 1.36-2.72 6.8 6.8 0 0 1 2.21-1.972Q9.862 8 11.46 8h7.412v1.122l-.442 2.958h-7.004q-1.87 0-2.856.102t-1.564.51q-.544.375-1.122 1.258"></path>
</svg><style>@media (prefers-color-scheme: light) { :root { filter: none; } }
@media (prefers-color-scheme: dark) { :root { filter: none; } }
</style></svg>